<mxfile host="app.diagrams.net" modified="2020-08-03T06:20:20.673Z" agent="5.0 (Macintosh; Intel Mac OS X 10_15_3) AppleWebKit/537.36 (KHTML, like Gecko) Chrome/84.0.4147.89 Safari/537.36" etag="y3Kzez_IWaxrOWnAgR5J" version="13.5.8" type="github">
  <diagram id="fWxZOa004KGKo8SdOx9H" name="Page-1">
    <mxGraphModel dx="1678" dy="907" grid="1" gridSize="10" guides="1" tooltips="1" connect="1" arrows="1" fold="1" page="1" pageScale="1" pageWidth="1920" pageHeight="1200" math="0" shadow="0">
      <root>
        <mxCell id="0" />
        <mxCell id="1" parent="0" />
        <mxCell id="RHiYW0O479axHai4NZhK-8" value="&lt;font style=&quot;font-size: 20px&quot;&gt;manager-Web&lt;/font&gt;" style="rounded=1;whiteSpace=wrap;html=1;" vertex="1" parent="1">
          <mxGeometry x="565" y="270" width="170" height="60" as="geometry" />
        </mxCell>
        <mxCell id="RHiYW0O479axHai4NZhK-10" value="&lt;font style=&quot;font-size: 20px&quot;&gt;Berserker&lt;/font&gt;" style="rounded=1;whiteSpace=wrap;html=1;dashed=1;strokeWidth=2;fillColor=#f5f5f5;strokeColor=#666666;fontColor=#333333;" vertex="1" parent="1">
          <mxGeometry x="790" y="100" width="150" height="60" as="geometry" />
        </mxCell>
        <mxCell id="RHiYW0O479axHai4NZhK-12" value="" style="group" vertex="1" connectable="0" parent="1">
          <mxGeometry x="595" y="550" width="110" height="60" as="geometry" />
        </mxCell>
        <mxCell id="RHiYW0O479axHai4NZhK-13" value="" style="shape=cylinder2;whiteSpace=wrap;html=1;boundedLbl=1;backgroundOutline=1;size=15;" vertex="1" parent="RHiYW0O479axHai4NZhK-12">
          <mxGeometry width="110" height="60" as="geometry" />
        </mxCell>
        <mxCell id="RHiYW0O479axHai4NZhK-14" value="&lt;font style=&quot;font-size: 20px&quot;&gt;MySql&lt;/font&gt;" style="text;html=1;strokeColor=none;fillColor=none;align=center;verticalAlign=middle;whiteSpace=wrap;rounded=0;" vertex="1" parent="RHiYW0O479axHai4NZhK-12">
          <mxGeometry x="16.923076923076923" y="34.28571428571428" width="76.15384615384615" height="17.14285714285714" as="geometry" />
        </mxCell>
        <mxCell id="RHiYW0O479axHai4NZhK-16" value="&lt;font style=&quot;font-size: 20px&quot;&gt;config-service&lt;/font&gt;" style="rounded=1;whiteSpace=wrap;html=1;strokeColor=#000000;strokeWidth=1;" vertex="1" parent="1">
          <mxGeometry x="310" y="410" width="180" height="60" as="geometry" />
        </mxCell>
        <mxCell id="RHiYW0O479axHai4NZhK-18" value="" style="shape=umlActor;verticalLabelPosition=bottom;verticalAlign=top;html=1;outlineConnect=0;strokeColor=#000000;strokeWidth=1;" vertex="1" parent="1">
          <mxGeometry x="635" y="130" width="30" height="60" as="geometry" />
        </mxCell>
        <mxCell id="RHiYW0O479axHai4NZhK-20" value="&lt;font style=&quot;font-size: 20px&quot;&gt;meta-service&lt;/font&gt;" style="rounded=1;whiteSpace=wrap;html=1;strokeColor=#000000;strokeWidth=1;" vertex="1" parent="1">
          <mxGeometry x="560" y="410" width="180" height="60" as="geometry" />
        </mxCell>
        <mxCell id="RHiYW0O479axHai4NZhK-21" value="&lt;font style=&quot;font-size: 20px&quot;&gt;monitor-service&lt;/font&gt;" style="rounded=1;whiteSpace=wrap;html=1;strokeColor=#000000;strokeWidth=1;" vertex="1" parent="1">
          <mxGeometry x="825" y="410" width="180" height="60" as="geometry" />
        </mxCell>
        <mxCell id="RHiYW0O479axHai4NZhK-24" value="&lt;font style=&quot;font-size: 20px&quot;&gt;audit-service&lt;/font&gt;" style="rounded=1;whiteSpace=wrap;html=1;strokeColor=#000000;strokeWidth=1;" vertex="1" parent="1">
          <mxGeometry x="310" y="270" width="180" height="60" as="geometry" />
        </mxCell>
        <mxCell id="RHiYW0O479axHai4NZhK-25" value="&lt;font style=&quot;font-size: 20px&quot;&gt;data-quality-service&lt;/font&gt;" style="rounded=1;whiteSpace=wrap;html=1;strokeColor=#000000;strokeWidth=1;" vertex="1" parent="1">
          <mxGeometry x="825" y="290" width="205" height="60" as="geometry" />
        </mxCell>
        <mxCell id="RHiYW0O479axHai4NZhK-26" value="" style="endArrow=classic;html=1;exitX=0.5;exitY=0;exitDx=0;exitDy=0;" edge="1" parent="1" source="RHiYW0O479axHai4NZhK-8" target="RHiYW0O479axHai4NZhK-18">
          <mxGeometry width="50" height="50" relative="1" as="geometry">
            <mxPoint x="680" y="230" as="sourcePoint" />
            <mxPoint x="840" y="200" as="targetPoint" />
          </mxGeometry>
        </mxCell>
        <mxCell id="RHiYW0O479axHai4NZhK-27" value="" style="endArrow=classic;html=1;exitX=0.5;exitY=0;exitDx=0;exitDy=0;entryX=0.5;entryY=1;entryDx=0;entryDy=0;" edge="1" parent="1" source="RHiYW0O479axHai4NZhK-20" target="RHiYW0O479axHai4NZhK-8">
          <mxGeometry width="50" height="50" relative="1" as="geometry">
            <mxPoint x="740" y="550" as="sourcePoint" />
            <mxPoint x="790" y="500" as="targetPoint" />
          </mxGeometry>
        </mxCell>
        <mxCell id="RHiYW0O479axHai4NZhK-28" value="&lt;div style=&quot;text-align: left&quot;&gt;&lt;span style=&quot;font-size: 19px&quot;&gt;1.Lancer Meta&lt;/span&gt;&lt;/div&gt;&lt;font style=&quot;font-size: 19px&quot;&gt;&lt;div style=&quot;text-align: left&quot;&gt;&lt;span&gt;2.Channel Info&lt;/span&gt;&lt;/div&gt;&lt;div style=&quot;text-align: left&quot;&gt;&lt;span&gt;3....&lt;/span&gt;&lt;/div&gt;&lt;/font&gt;" style="shape=process;whiteSpace=wrap;html=1;backgroundOutline=1;strokeColor=#000000;strokeWidth=1;" vertex="1" parent="1">
          <mxGeometry x="310" y="540" width="180" height="70" as="geometry" />
        </mxCell>
        <mxCell id="RHiYW0O479axHai4NZhK-29" value="" style="endArrow=classic;html=1;exitX=0.5;exitY=0;exitDx=0;exitDy=0;" edge="1" parent="1" source="RHiYW0O479axHai4NZhK-28" target="RHiYW0O479axHai4NZhK-16">
          <mxGeometry width="50" height="50" relative="1" as="geometry">
            <mxPoint x="460" y="700" as="sourcePoint" />
            <mxPoint x="510" y="650" as="targetPoint" />
          </mxGeometry>
        </mxCell>
        <mxCell id="RHiYW0O479axHai4NZhK-30" value="" style="endArrow=classic;html=1;exitX=1;exitY=0.5;exitDx=0;exitDy=0;entryX=0;entryY=0.5;entryDx=0;entryDy=0;" edge="1" parent="1" source="RHiYW0O479axHai4NZhK-16" target="RHiYW0O479axHai4NZhK-20">
          <mxGeometry width="50" height="50" relative="1" as="geometry">
            <mxPoint x="630" y="760" as="sourcePoint" />
            <mxPoint x="680" y="710" as="targetPoint" />
          </mxGeometry>
        </mxCell>
        <mxCell id="RHiYW0O479axHai4NZhK-31" value="" style="endArrow=classic;html=1;exitX=0.5;exitY=1;exitDx=0;exitDy=0;entryX=0.464;entryY=0;entryDx=0;entryDy=0;entryPerimeter=0;dashed=1;strokeColor=#808080;" edge="1" parent="1" source="RHiYW0O479axHai4NZhK-16" target="RHiYW0O479axHai4NZhK-13">
          <mxGeometry width="50" height="50" relative="1" as="geometry">
            <mxPoint x="590" y="720" as="sourcePoint" />
            <mxPoint x="640" y="670" as="targetPoint" />
          </mxGeometry>
        </mxCell>
        <mxCell id="RHiYW0O479axHai4NZhK-32" value="" style="endArrow=classic;html=1;exitX=0.5;exitY=1;exitDx=0;exitDy=0;dashed=1;strokeColor=#999999;" edge="1" parent="1" source="RHiYW0O479axHai4NZhK-20" target="RHiYW0O479axHai4NZhK-13">
          <mxGeometry width="50" height="50" relative="1" as="geometry">
            <mxPoint x="700" y="750" as="sourcePoint" />
            <mxPoint x="750" y="700" as="targetPoint" />
          </mxGeometry>
        </mxCell>
        <mxCell id="RHiYW0O479axHai4NZhK-33" value="" style="endArrow=classic;html=1;exitX=1;exitY=0.5;exitDx=0;exitDy=0;entryX=0;entryY=0.5;entryDx=0;entryDy=0;" edge="1" parent="1" source="RHiYW0O479axHai4NZhK-20" target="RHiYW0O479axHai4NZhK-21">
          <mxGeometry width="50" height="50" relative="1" as="geometry">
            <mxPoint x="980" y="580" as="sourcePoint" />
            <mxPoint x="1030" y="530" as="targetPoint" />
          </mxGeometry>
        </mxCell>
        <mxCell id="RHiYW0O479axHai4NZhK-34" value="&lt;font style=&quot;font-size: 20px&quot;&gt;job-service&lt;/font&gt;" style="rounded=1;whiteSpace=wrap;html=1;strokeColor=#000000;strokeWidth=1;" vertex="1" parent="1">
          <mxGeometry x="825" y="520" width="180" height="60" as="geometry" />
        </mxCell>
        <mxCell id="RHiYW0O479axHai4NZhK-35" value="" style="endArrow=classic;html=1;exitX=1;exitY=0.5;exitDx=0;exitDy=0;entryX=0;entryY=0.5;entryDx=0;entryDy=0;" edge="1" parent="1" source="RHiYW0O479axHai4NZhK-20" target="RHiYW0O479axHai4NZhK-34">
          <mxGeometry width="50" height="50" relative="1" as="geometry">
            <mxPoint x="1200" y="590" as="sourcePoint" />
            <mxPoint x="1250" y="540" as="targetPoint" />
          </mxGeometry>
        </mxCell>
        <mxCell id="RHiYW0O479axHai4NZhK-41" value="" style="endArrow=classic;html=1;exitX=1;exitY=0.5;exitDx=0;exitDy=0;entryX=0;entryY=0.5;entryDx=0;entryDy=0;" edge="1" parent="1" source="RHiYW0O479axHai4NZhK-20" target="RHiYW0O479axHai4NZhK-25">
          <mxGeometry width="50" height="50" relative="1" as="geometry">
            <mxPoint x="840" y="700" as="sourcePoint" />
            <mxPoint x="890" y="650" as="targetPoint" />
          </mxGeometry>
        </mxCell>
        <mxCell id="RHiYW0O479axHai4NZhK-43" value="" style="group" vertex="1" connectable="0" parent="1">
          <mxGeometry x="1070" y="499" width="110" height="102" as="geometry" />
        </mxCell>
        <mxCell id="RHiYW0O479axHai4NZhK-37" value="" style="group" vertex="1" connectable="0" parent="RHiYW0O479axHai4NZhK-43">
          <mxGeometry y="42" width="110" height="60" as="geometry" />
        </mxCell>
        <mxCell id="RHiYW0O479axHai4NZhK-38" value="" style="shape=cylinder2;whiteSpace=wrap;html=1;boundedLbl=1;backgroundOutline=1;size=15;" vertex="1" parent="RHiYW0O479axHai4NZhK-37">
          <mxGeometry width="110" height="60" as="geometry" />
        </mxCell>
        <mxCell id="RHiYW0O479axHai4NZhK-39" value="&lt;font style=&quot;font-size: 20px&quot;&gt;YARN&lt;/font&gt;" style="text;html=1;strokeColor=none;fillColor=none;align=center;verticalAlign=middle;whiteSpace=wrap;rounded=0;" vertex="1" parent="RHiYW0O479axHai4NZhK-37">
          <mxGeometry x="16.923076923076923" y="34.28571428571428" width="76.15384615384615" height="17.14285714285714" as="geometry" />
        </mxCell>
        <mxCell id="RHiYW0O479axHai4NZhK-6" value="" style="group" vertex="1" connectable="0" parent="RHiYW0O479axHai4NZhK-43">
          <mxGeometry width="110" height="60" as="geometry" />
        </mxCell>
        <mxCell id="RHiYW0O479axHai4NZhK-4" value="" style="shape=cylinder2;whiteSpace=wrap;html=1;boundedLbl=1;backgroundOutline=1;size=15;" vertex="1" parent="RHiYW0O479axHai4NZhK-6">
          <mxGeometry width="110" height="60" as="geometry" />
        </mxCell>
        <mxCell id="RHiYW0O479axHai4NZhK-5" value="&lt;font style=&quot;font-size: 20px&quot;&gt;HDFS&lt;/font&gt;" style="text;html=1;strokeColor=none;fillColor=none;align=center;verticalAlign=middle;whiteSpace=wrap;rounded=0;" vertex="1" parent="RHiYW0O479axHai4NZhK-6">
          <mxGeometry x="16.923076923076923" y="34.28571428571428" width="76.15384615384615" height="17.14285714285714" as="geometry" />
        </mxCell>
        <mxCell id="RHiYW0O479axHai4NZhK-45" value="" style="group" vertex="1" connectable="0" parent="1">
          <mxGeometry x="1070" y="389" width="110" height="102" as="geometry" />
        </mxCell>
        <mxCell id="RHiYW0O479axHai4NZhK-46" value="" style="group" vertex="1" connectable="0" parent="RHiYW0O479axHai4NZhK-45">
          <mxGeometry y="42" width="110" height="60" as="geometry" />
        </mxCell>
        <mxCell id="RHiYW0O479axHai4NZhK-47" value="" style="shape=cylinder2;whiteSpace=wrap;html=1;boundedLbl=1;backgroundOutline=1;size=15;" vertex="1" parent="RHiYW0O479axHai4NZhK-46">
          <mxGeometry width="110" height="60" as="geometry" />
        </mxCell>
        <mxCell id="RHiYW0O479axHai4NZhK-48" value="&lt;span style=&quot;color: rgb(51 , 51 , 51) ; font-family: &amp;#34;microsoft yahei&amp;#34; , &amp;#34;arial&amp;#34; , sans-serif ; background-color: rgb(255 , 255 , 255)&quot;&gt;&lt;font style=&quot;font-size: 16px&quot;&gt;Prometheus&lt;/font&gt;&lt;/span&gt;" style="text;html=1;strokeColor=none;fillColor=none;align=center;verticalAlign=middle;whiteSpace=wrap;rounded=0;" vertex="1" parent="RHiYW0O479axHai4NZhK-46">
          <mxGeometry x="16.923076923076923" y="34.28571428571428" width="76.15384615384615" height="17.14285714285714" as="geometry" />
        </mxCell>
        <mxCell id="RHiYW0O479axHai4NZhK-49" value="" style="group" vertex="1" connectable="0" parent="RHiYW0O479axHai4NZhK-45">
          <mxGeometry width="110" height="60" as="geometry" />
        </mxCell>
        <mxCell id="RHiYW0O479axHai4NZhK-50" value="" style="shape=cylinder2;whiteSpace=wrap;html=1;boundedLbl=1;backgroundOutline=1;size=15;" vertex="1" parent="RHiYW0O479axHai4NZhK-49">
          <mxGeometry width="110" height="60" as="geometry" />
        </mxCell>
        <mxCell id="RHiYW0O479axHai4NZhK-51" value="&lt;font style=&quot;font-size: 17px&quot;&gt;Kibana&lt;/font&gt;" style="text;html=1;strokeColor=none;fillColor=none;align=center;verticalAlign=middle;whiteSpace=wrap;rounded=0;" vertex="1" parent="RHiYW0O479axHai4NZhK-49">
          <mxGeometry x="16.923076923076923" y="34.28571428571428" width="76.15384615384615" height="17.14285714285714" as="geometry" />
        </mxCell>
        <mxCell id="RHiYW0O479axHai4NZhK-52" value="" style="shape=curlyBracket;whiteSpace=wrap;html=1;rounded=1;strokeColor=#000000;strokeWidth=1;" vertex="1" parent="1">
          <mxGeometry x="1030" y="515" width="20" height="70" as="geometry" />
        </mxCell>
        <mxCell id="RHiYW0O479axHai4NZhK-53" value="" style="shape=curlyBracket;whiteSpace=wrap;html=1;rounded=1;strokeColor=#000000;strokeWidth=1;" vertex="1" parent="1">
          <mxGeometry x="1030" y="405" width="20" height="70" as="geometry" />
        </mxCell>
        <mxCell id="RHiYW0O479axHai4NZhK-54" value="T+1 &lt;br&gt;Job S&lt;span style=&quot;font-family: &amp;#34;microsoft yahei&amp;#34; , &amp;#34;arial&amp;#34; , &amp;#34;helvetica&amp;#34; , sans-serif ; font-size: 14px ; text-align: left ; background-color: rgb(255 , 255 , 255)&quot;&gt;tatistics&lt;/span&gt;&amp;nbsp;" style="shape=process;whiteSpace=wrap;html=1;backgroundOutline=1;strokeColor=#000000;strokeWidth=1;" vertex="1" parent="1">
          <mxGeometry x="1070" y="290" width="120" height="60" as="geometry" />
        </mxCell>
        <mxCell id="RHiYW0O479axHai4NZhK-55" value="" style="endArrow=classic;html=1;rounded=1;exitX=1;exitY=0.5;exitDx=0;exitDy=0;" edge="1" parent="1" source="RHiYW0O479axHai4NZhK-25">
          <mxGeometry width="50" height="50" relative="1" as="geometry">
            <mxPoint x="1260" y="380" as="sourcePoint" />
            <mxPoint x="1070" y="320" as="targetPoint" />
          </mxGeometry>
        </mxCell>
      </root>
    </mxGraphModel>
  </diagram>
</mxfile>
